<?xml version="1.0" standalone="no"?>
<svg xmlns="http://www.w3.org/2000/svg" viewBox="0 0 1440 320">
    <defs>
        <linearGradient id="grad1" x1="0%" y1="0%" x2="100%" y2="0%">
            <stop offset="0%" style="stop-color:rgb(255, 189, 89);stop-opacity:1" />
            <stop offset="100%" style="stop-color:rgb(238, 130, 130);stop-opacity:1" />
        </linearGradient>
    </defs>
    <path fill="url(#grad1)" fill-opacity="1" d="M0,128L60,117.3C120,107,240,85,360,85.3C480,85,600,107,720,133.3C840,160,960,192,1080,213.3C1200,235,1320,245,1380,250.7L1440,256L1440,320L1380,320C1320,320,1200,320,1080,320C960,320,840,320,720,320C600,320,480,320,360,320C240,320,120,320,60,320L0,320Z">

    </path>


</svg>